<?xml version="1.0" encoding="UTF-8" standalone="no"?>
<!-- Created with Inkscape (http://www.inkscape.org/) -->

<svg
   width="128mm"
   height="128mm"
   viewBox="0 0 128 128"
   version="1.1"
   id="svg1"
   xml:space="preserve"
   xmlns="http://www.w3.org/2000/svg"
   xmlns:svg="http://www.w3.org/2000/svg"><defs
     id="defs1" /><g
     id="layer1"
     transform="translate(-10.858666,-148.52669)"><path
       style="fill:#067bb6;fill-opacity:1;stroke-width:1.01449"
       d="m 47.962478,276.38807 c -13.4427,-1.10153 -25.791742,-8.77705 -32.241064,-20.03937 -1.686032,-2.94428 -3.156278,-6.63552 -3.966242,-9.95776 -0.937027,-3.8434 -1.183432,-10.5631 -0.529681,-14.44496 1.154822,-6.85713 4.257035,-13.38338 8.906344,-18.73665 1.477782,-1.70153 51.398787,-48.90356 60.660431,-57.35653 3.357073,-3.06394 8.053659,-5.48919 12.722483,-6.56969 14.942751,-3.45819 30.202971,5.26633 34.150931,19.52462 0.52081,1.88097 0.60351,2.80252 0.59963,6.68203 -0.005,5.19747 -0.27637,6.54988 -2.12455,10.59618 -1.50728,3.29995 -2.96272,5.35638 -5.84039,8.25201 -2.91823,2.93644 -57.735846,54.40269 -58.997365,55.39047 -4.590362,3.59425 -11.735455,4.25102 -16.989149,1.56161 -6.201835,-3.17477 -9.544112,-9.51245 -8.403474,-15.93485 0.380369,-2.14168 2.088892,-5.67312 3.518317,-7.27219 1.268844,-1.41945 53.594619,-50.56685 54.623976,-51.30601 0.370359,-0.26595 1.144085,-0.46902 1.787016,-0.46902 2.353337,0 3.940457,2.7398 2.792608,4.8208 -0.262758,0.47636 -12.487951,12.14478 -27.167093,25.92981 -14.679142,13.78502 -27.075377,25.54561 -27.547188,26.13466 -0.945978,1.18104 -1.63517,3.20086 -1.63517,4.79221 0,2.77612 2.158774,5.91729 5.018587,7.3024 1.273648,0.61688 1.796853,0.70401 4.227322,0.70401 2.484834,0 2.926195,-0.0773 4.236994,-0.74259 1.11638,-0.56657 8.526413,-7.3792 31.260796,-28.74053 16.388683,-15.39885 30.327753,-28.68782 30.975723,-29.53102 2.50639,-3.26159 3.84879,-7.30596 3.85833,-11.62433 0.0105,-4.75867 -1.68231,-9.04318 -5.02044,-12.70669 -3.12386,-3.42839 -6.51017,-5.45614 -11.15678,-6.6808 -2.86131,-0.75413 -8.582878,-0.70128 -11.434243,0.10563 -2.601573,0.73621 -6.000799,2.38678 -7.749239,3.76281 -2.047251,1.61118 -59.42096,55.65877 -61.362303,57.80494 -5.560174,6.14683 -8.389507,14.58961 -7.65254,22.83531 1.106591,12.38129 9.998815,23.21497 22.418212,27.31282 5.070199,1.67294 10.206322,2.29275 14.927601,1.80141 7.21248,-0.75059 13.379231,-3.16757 18.709739,-7.33306 1.36154,-1.06397 54.943513,-51.22076 59.250163,-55.46265 1.73391,-1.70785 3.6221,-1.83069 5.13516,-0.33408 0.91816,0.90817 1.18254,2.24923 0.68554,3.47729 -0.26892,0.66447 -8.74155,8.8002 -29.76705,28.58342 -16.165145,15.20999 -30.287015,28.36599 -31.38195,29.23553 -7.893585,6.26871 -18.931498,9.49883 -29.499992,8.63281 z"
       id="path5-3" /></g></svg>
