<?xml version="1.0" encoding="UTF-8" standalone="no"?>
<!-- Created with Inkscape (http://www.inkscape.org/) -->

<svg
   width="128mm"
   height="128mm"
   viewBox="0 0 128 128"
   version="1.1"
   id="svg1"
   xml:space="preserve"
   xmlns="http://www.w3.org/2000/svg"
   xmlns:svg="http://www.w3.org/2000/svg"><defs
     id="defs1" /><g
     id="layer1"
     transform="translate(-8.9601328,-16.127224)"><path
       style="fill:#000000;stroke-width:1.01449"
       d="M 46.063949,143.98863 C 32.621248,142.88709 20.272205,135.21157 13.822882,123.94925 12.136851,121.00498 10.666604,117.31374 9.8566407,113.9915 8.919613,110.14809 8.6732086,103.42839 9.3269598,99.546532 10.481781,92.689403 13.583994,86.163154 18.233304,80.809885 c 1.477781,-1.701528 51.39879,-48.903564 60.660434,-57.356533 3.357074,-3.063941 8.05366,-5.489191 12.722487,-6.569687 14.942735,-3.458185 30.202965,5.26633 34.150925,19.524619 0.52081,1.880973 0.60351,2.802518 0.59962,6.682026 -0.005,5.197472 -0.27636,6.549885 -2.12454,10.596179 -1.50729,3.299955 -2.96272,5.356382 -5.84039,8.252012 -2.91823,2.93644 -57.735845,54.402699 -58.997364,55.390469 -4.590362,3.59426 -11.735456,4.25103 -16.98915,1.56162 -6.201836,-3.17477 -9.544112,-9.51247 -8.403474,-15.93486 0.380369,-2.14168 2.088891,-5.673116 3.518316,-7.272192 1.268845,-1.419447 53.594623,-50.56684 54.623983,-51.306003 0.370359,-0.265949 1.144085,-0.469019 1.787016,-0.469019 2.35334,0 3.94046,2.739802 2.792611,4.820793 -0.262758,0.476369 -12.487957,12.144787 -27.1671,25.92981 -14.679143,13.785024 -27.075379,25.545621 -27.547189,26.134661 -0.945979,1.18104 -1.635171,3.20086 -1.635171,4.79221 0,2.77611 2.158774,5.91728 5.018588,7.3024 1.273647,0.61688 1.796853,0.70402 4.227322,0.70402 2.484834,0 2.926195,-0.0773 4.236994,-0.7426 1.11638,-0.56657 8.526414,-7.3792 31.260798,-28.740526 16.38868,-15.39885 30.32774,-28.687817 30.97572,-29.53102 2.50638,-3.261589 3.84879,-7.305965 3.85832,-11.624331 0.0105,-4.758666 -1.68231,-9.04318 -5.02043,-12.706692 -3.12387,-3.428384 -6.51017,-5.456133 -11.15678,-6.680798 -2.86131,-0.754131 -8.582871,-0.701282 -11.434237,0.105627 -2.601576,0.736215 -6.000801,2.386781 -7.749242,3.76281 -2.047251,1.611188 -59.420964,55.658777 -61.362307,57.804946 -5.560174,6.146828 -8.389508,14.589602 -7.65254,22.835304 1.106591,12.38129 9.998815,23.21497 22.418213,27.31283 5.0702,1.67294 10.206323,2.29275 14.927602,1.80141 7.21248,-0.7506 13.379231,-3.16758 18.709741,-7.33307 1.361539,-1.06397 54.94351,-51.220756 59.25015,-55.462645 1.73392,-1.707848 3.62211,-1.83069 5.13517,-0.334086 0.91816,0.908175 1.18254,2.249229 0.68554,3.477296 -0.26892,0.664471 -8.74155,8.800197 -29.76705,28.583415 -16.165142,15.20999 -30.287013,28.36599 -31.381948,29.23553 -7.893585,6.26872 -18.931499,9.49883 -29.499993,8.63282 z"
       id="path5" /></g></svg>
